<mxfile host="app.diagrams.net" agent="Mozilla/5.0 (Macintosh; Intel Mac OS X 10_15_7) AppleWebKit/605.1.15 (KHTML, like Gecko) Version/18.2 Safari/605.1.15" version="26.0.11">
  <diagram id="5pTPnk4X15udIdV0EkQY" name="Page-1">
    <mxGraphModel dx="2117" dy="1024" grid="0" gridSize="10" guides="1" tooltips="1" connect="1" arrows="1" fold="1" page="0" pageScale="1" pageWidth="850" pageHeight="1100" math="0" shadow="0">
      <root>
        <mxCell id="0" />
        <mxCell id="1" parent="0" />
        <mxCell id="8iII8IrtHj4zT02Lu7h3-1" value="«interface»&#xa;PayStation" style="swimlane;fontStyle=1;align=center;verticalAlign=top;childLayout=stackLayout;horizontal=1;startSize=38;horizontalStack=0;resizeParent=1;resizeParentMax=0;resizeLast=0;collapsible=1;marginBottom=0;hachureGap=4;" parent="1" vertex="1">
          <mxGeometry x="426" y="89" width="217" height="192" as="geometry" />
        </mxCell>
        <mxCell id="8iII8IrtHj4zT02Lu7h3-2" value=" &#xa;" style="text;strokeColor=none;fillColor=none;align=left;verticalAlign=top;spacingLeft=4;spacingRight=4;overflow=hidden;rotatable=0;points=[[0,0.5],[1,0.5]];portConstraint=eastwest;hachureGap=4;" parent="8iII8IrtHj4zT02Lu7h3-1" vertex="1">
          <mxGeometry y="38" width="217" height="29" as="geometry" />
        </mxCell>
        <mxCell id="8iII8IrtHj4zT02Lu7h3-3" value="" style="line;strokeWidth=1;fillColor=none;align=left;verticalAlign=middle;spacingTop=-1;spacingLeft=3;spacingRight=3;rotatable=0;labelPosition=right;points=[];portConstraint=eastwest;hachureGap=4;" parent="8iII8IrtHj4zT02Lu7h3-1" vertex="1">
          <mxGeometry y="67" width="217" height="8" as="geometry" />
        </mxCell>
        <mxCell id="8iII8IrtHj4zT02Lu7h3-4" value="+ addPayment(int): void&#xa;+ readDisplay():int&#xa;+ buy(): Receipt&#xa;+ cancel(): Map&lt;int, int&gt;&#xa;+ empty():int&#xa;+ deposit(): void&#xa;+ rates(): void&#xa;" style="text;strokeColor=none;fillColor=none;align=left;verticalAlign=top;spacingLeft=4;spacingRight=4;overflow=hidden;rotatable=0;points=[[0,0.5],[1,0.5]];portConstraint=eastwest;hachureGap=4;" parent="8iII8IrtHj4zT02Lu7h3-1" vertex="1">
          <mxGeometry y="75" width="217" height="117" as="geometry" />
        </mxCell>
        <mxCell id="D4UEPr_kbto4Egsa2P8d-41" style="edgeStyle=orthogonalEdgeStyle;rounded=0;orthogonalLoop=1;jettySize=auto;html=1;entryX=0.5;entryY=0;entryDx=0;entryDy=0;dashed=1;" edge="1" parent="1" source="8iII8IrtHj4zT02Lu7h3-5" target="eepXHNa1NFzo9ST1N9Kp-25">
          <mxGeometry relative="1" as="geometry">
            <Array as="points">
              <mxPoint x="535" y="776" />
              <mxPoint x="449" y="776" />
            </Array>
          </mxGeometry>
        </mxCell>
        <mxCell id="D4UEPr_kbto4Egsa2P8d-50" style="edgeStyle=orthogonalEdgeStyle;rounded=0;orthogonalLoop=1;jettySize=auto;html=1;entryX=0;entryY=0.5;entryDx=0;entryDy=0;dashed=1;endArrow=openThin;endFill=0;" edge="1" parent="1" source="8iII8IrtHj4zT02Lu7h3-5" target="8iII8IrtHj4zT02Lu7h3-21">
          <mxGeometry relative="1" as="geometry" />
        </mxCell>
        <mxCell id="8iII8IrtHj4zT02Lu7h3-5" value="PayStationImpl" style="swimlane;fontStyle=1;align=center;verticalAlign=top;childLayout=stackLayout;horizontal=1;startSize=26;horizontalStack=0;resizeParent=1;resizeParentMax=0;resizeLast=0;collapsible=1;marginBottom=0;hachureGap=4;" parent="1" vertex="1">
          <mxGeometry x="426" y="328" width="217" height="165" as="geometry" />
        </mxCell>
        <mxCell id="8iII8IrtHj4zT02Lu7h3-6" value="- insertedSoFar: int&#xa;- timeBought: int&#xa;- coinMap:Map&lt;Integer, Integer&gt;&#xa;- totalMoney:int&#xa;- rateStrategy: RateStrategy&#xa;- scanner: Scanner" style="text;strokeColor=none;fillColor=none;align=left;verticalAlign=top;spacingLeft=4;spacingRight=4;overflow=hidden;rotatable=0;points=[[0,0.5],[1,0.5]];portConstraint=eastwest;hachureGap=4;" parent="8iII8IrtHj4zT02Lu7h3-5" vertex="1">
          <mxGeometry y="26" width="217" height="95" as="geometry" />
        </mxCell>
        <mxCell id="8iII8IrtHj4zT02Lu7h3-7" value="" style="line;strokeWidth=1;fillColor=none;align=left;verticalAlign=middle;spacingTop=-1;spacingLeft=3;spacingRight=3;rotatable=0;labelPosition=right;points=[];portConstraint=eastwest;hachureGap=4;" parent="8iII8IrtHj4zT02Lu7h3-5" vertex="1">
          <mxGeometry y="121" width="217" height="8" as="geometry" />
        </mxCell>
        <mxCell id="8iII8IrtHj4zT02Lu7h3-8" value="- reset():void&#xa;" style="text;strokeColor=none;fillColor=none;align=left;verticalAlign=top;spacingLeft=4;spacingRight=4;overflow=hidden;rotatable=0;points=[[0,0.5],[1,0.5]];portConstraint=eastwest;hachureGap=4;" parent="8iII8IrtHj4zT02Lu7h3-5" vertex="1">
          <mxGeometry y="129" width="217" height="36" as="geometry" />
        </mxCell>
        <mxCell id="8iII8IrtHj4zT02Lu7h3-10" value="«interface»&#xa;Receipt" style="swimlane;fontStyle=1;align=center;verticalAlign=top;childLayout=stackLayout;horizontal=1;startSize=38;horizontalStack=0;resizeParent=1;resizeParentMax=0;resizeLast=0;collapsible=1;marginBottom=0;hachureGap=4;" parent="1" vertex="1">
          <mxGeometry x="139" y="138" width="217" height="107" as="geometry" />
        </mxCell>
        <mxCell id="8iII8IrtHj4zT02Lu7h3-11" value=" &#xa;" style="text;strokeColor=none;fillColor=none;align=left;verticalAlign=top;spacingLeft=4;spacingRight=4;overflow=hidden;rotatable=0;points=[[0,0.5],[1,0.5]];portConstraint=eastwest;hachureGap=4;" parent="8iII8IrtHj4zT02Lu7h3-10" vertex="1">
          <mxGeometry y="38" width="217" height="29" as="geometry" />
        </mxCell>
        <mxCell id="8iII8IrtHj4zT02Lu7h3-12" value="" style="line;strokeWidth=1;fillColor=none;align=left;verticalAlign=middle;spacingTop=-1;spacingLeft=3;spacingRight=3;rotatable=0;labelPosition=right;points=[];portConstraint=eastwest;hachureGap=4;" parent="8iII8IrtHj4zT02Lu7h3-10" vertex="1">
          <mxGeometry y="67" width="217" height="8" as="geometry" />
        </mxCell>
        <mxCell id="8iII8IrtHj4zT02Lu7h3-13" value="+ value(): int" style="text;strokeColor=none;fillColor=none;align=left;verticalAlign=top;spacingLeft=4;spacingRight=4;overflow=hidden;rotatable=0;points=[[0,0.5],[1,0.5]];portConstraint=eastwest;hachureGap=4;" parent="8iII8IrtHj4zT02Lu7h3-10" vertex="1">
          <mxGeometry y="75" width="217" height="32" as="geometry" />
        </mxCell>
        <mxCell id="8iII8IrtHj4zT02Lu7h3-14" value="ReceiptImpl" style="swimlane;fontStyle=1;align=center;verticalAlign=top;childLayout=stackLayout;horizontal=1;startSize=38;horizontalStack=0;resizeParent=1;resizeParentMax=0;resizeLast=0;collapsible=1;marginBottom=0;hachureGap=4;" parent="1" vertex="1">
          <mxGeometry x="139" y="328" width="217" height="108" as="geometry" />
        </mxCell>
        <mxCell id="8iII8IrtHj4zT02Lu7h3-15" value="- value:int" style="text;strokeColor=none;fillColor=none;align=left;verticalAlign=top;spacingLeft=4;spacingRight=4;overflow=hidden;rotatable=0;points=[[0,0.5],[1,0.5]];portConstraint=eastwest;hachureGap=4;" parent="8iII8IrtHj4zT02Lu7h3-14" vertex="1">
          <mxGeometry y="38" width="217" height="29" as="geometry" />
        </mxCell>
        <mxCell id="8iII8IrtHj4zT02Lu7h3-16" value="" style="line;strokeWidth=1;fillColor=none;align=left;verticalAlign=middle;spacingTop=-1;spacingLeft=3;spacingRight=3;rotatable=0;labelPosition=right;points=[];portConstraint=eastwest;hachureGap=4;" parent="8iII8IrtHj4zT02Lu7h3-14" vertex="1">
          <mxGeometry y="67" width="217" height="8" as="geometry" />
        </mxCell>
        <mxCell id="8iII8IrtHj4zT02Lu7h3-17" value="+ value(): int" style="text;strokeColor=none;fillColor=none;align=left;verticalAlign=top;spacingLeft=4;spacingRight=4;overflow=hidden;rotatable=0;points=[[0,0.5],[1,0.5]];portConstraint=eastwest;hachureGap=4;" parent="8iII8IrtHj4zT02Lu7h3-14" vertex="1">
          <mxGeometry y="75" width="217" height="33" as="geometry" />
        </mxCell>
        <mxCell id="8iII8IrtHj4zT02Lu7h3-20" value="«interface»&lt;br&gt;&lt;div&gt;&lt;b&gt;Exception&lt;/b&gt;&lt;/div&gt;" style="html=1;hachureGap=4;" parent="1" vertex="1">
          <mxGeometry x="774" y="200" width="106" height="50" as="geometry" />
        </mxCell>
        <mxCell id="D4UEPr_kbto4Egsa2P8d-37" style="edgeStyle=orthogonalEdgeStyle;rounded=0;orthogonalLoop=1;jettySize=auto;html=1;entryX=0.5;entryY=1;entryDx=0;entryDy=0;dashed=1;endArrow=block;endFill=0;" edge="1" parent="1" source="8iII8IrtHj4zT02Lu7h3-21" target="8iII8IrtHj4zT02Lu7h3-20">
          <mxGeometry relative="1" as="geometry" />
        </mxCell>
        <mxCell id="8iII8IrtHj4zT02Lu7h3-21" value="IllegalCoinException" style="swimlane;fontStyle=1;align=center;verticalAlign=top;childLayout=stackLayout;horizontal=1;startSize=38;horizontalStack=0;resizeParent=1;resizeParentMax=0;resizeLast=0;collapsible=1;marginBottom=0;hachureGap=4;" parent="1" vertex="1">
          <mxGeometry x="718" y="328" width="217" height="46" as="geometry" />
        </mxCell>
        <mxCell id="8iII8IrtHj4zT02Lu7h3-23" value="" style="line;strokeWidth=1;fillColor=none;align=left;verticalAlign=middle;spacingTop=-1;spacingLeft=3;spacingRight=3;rotatable=0;labelPosition=right;points=[];portConstraint=eastwest;hachureGap=4;" parent="8iII8IrtHj4zT02Lu7h3-21" vertex="1">
          <mxGeometry y="38" width="217" height="8" as="geometry" />
        </mxCell>
        <mxCell id="8iII8IrtHj4zT02Lu7h3-28" value="1" style="text;html=1;align=center;verticalAlign=middle;resizable=0;points=[];autosize=1;strokeColor=none;fillColor=none;hachureGap=4;" parent="1" vertex="1">
          <mxGeometry x="359" y="356" width="17" height="18" as="geometry" />
        </mxCell>
        <mxCell id="8iII8IrtHj4zT02Lu7h3-29" value="1" style="text;html=1;align=center;verticalAlign=middle;resizable=0;points=[];autosize=1;strokeColor=none;fillColor=none;hachureGap=4;" parent="1" vertex="1">
          <mxGeometry x="407" y="356" width="17" height="18" as="geometry" />
        </mxCell>
        <mxCell id="eepXHNa1NFzo9ST1N9Kp-21" value="PayStationOp" style="swimlane;fontStyle=1;align=center;verticalAlign=top;childLayout=stackLayout;horizontal=1;startSize=26;horizontalStack=0;resizeParent=1;resizeParentMax=0;resizeLast=0;collapsible=1;marginBottom=0;hachureGap=4;" parent="1" vertex="1">
          <mxGeometry x="739" y="442" width="217" height="148" as="geometry" />
        </mxCell>
        <mxCell id="eepXHNa1NFzo9ST1N9Kp-22" value="- scanner: Scanner&#xa;- payStation: PayStation" style="text;strokeColor=none;fillColor=none;align=left;verticalAlign=top;spacingLeft=4;spacingRight=4;overflow=hidden;rotatable=0;points=[[0,0.5],[1,0.5]];portConstraint=eastwest;hachureGap=4;" parent="eepXHNa1NFzo9ST1N9Kp-21" vertex="1">
          <mxGeometry y="26" width="217" height="50" as="geometry" />
        </mxCell>
        <mxCell id="eepXHNa1NFzo9ST1N9Kp-23" value="" style="line;strokeWidth=1;fillColor=none;align=left;verticalAlign=middle;spacingTop=-1;spacingLeft=3;spacingRight=3;rotatable=0;labelPosition=right;points=[];portConstraint=eastwest;hachureGap=4;" parent="eepXHNa1NFzo9ST1N9Kp-21" vertex="1">
          <mxGeometry y="76" width="217" height="8" as="geometry" />
        </mxCell>
        <mxCell id="eepXHNa1NFzo9ST1N9Kp-24" value="+ main(String[]): void&#xa;- menu(): void&#xa;- menuInput():int+reset():void" style="text;strokeColor=none;fillColor=default;align=left;verticalAlign=top;spacingLeft=4;spacingRight=4;overflow=hidden;rotatable=0;points=[[0,0.5],[1,0.5]];portConstraint=eastwest;hachureGap=4;fontStyle=4" parent="eepXHNa1NFzo9ST1N9Kp-21" vertex="1">
          <mxGeometry y="84" width="217" height="64" as="geometry" />
        </mxCell>
        <mxCell id="eepXHNa1NFzo9ST1N9Kp-25" value="«interface»&#xa;RateStrategy" style="swimlane;fontStyle=1;align=center;verticalAlign=top;childLayout=stackLayout;horizontal=1;startSize=38;horizontalStack=0;resizeParent=1;resizeParentMax=0;resizeLast=0;collapsible=1;marginBottom=0;hachureGap=4;" parent="1" vertex="1">
          <mxGeometry x="340" y="828" width="217" height="83" as="geometry" />
        </mxCell>
        <mxCell id="eepXHNa1NFzo9ST1N9Kp-27" value="" style="line;strokeWidth=1;fillColor=none;align=left;verticalAlign=middle;spacingTop=-1;spacingLeft=3;spacingRight=3;rotatable=0;labelPosition=right;points=[];portConstraint=eastwest;hachureGap=4;" parent="eepXHNa1NFzo9ST1N9Kp-25" vertex="1">
          <mxGeometry y="38" width="217" height="8" as="geometry" />
        </mxCell>
        <mxCell id="eepXHNa1NFzo9ST1N9Kp-28" value="+ calc(int): int" style="text;strokeColor=none;fillColor=none;align=left;verticalAlign=top;spacingLeft=4;spacingRight=4;overflow=hidden;rotatable=0;points=[[0,0.5],[1,0.5]];portConstraint=eastwest;hachureGap=4;" parent="eepXHNa1NFzo9ST1N9Kp-25" vertex="1">
          <mxGeometry y="46" width="217" height="37" as="geometry" />
        </mxCell>
        <mxCell id="D4UEPr_kbto4Egsa2P8d-10" value="ProgressiveRateStrategy" style="swimlane;fontStyle=1;align=center;verticalAlign=top;childLayout=stackLayout;horizontal=1;startSize=26;horizontalStack=0;resizeParent=1;resizeParentMax=0;resizeLast=0;collapsible=1;marginBottom=0;whiteSpace=wrap;html=1;" vertex="1" parent="1">
          <mxGeometry x="320" y="680" width="160" height="34" as="geometry">
            <mxRectangle x="320" y="680" width="168" height="26" as="alternateBounds" />
          </mxGeometry>
        </mxCell>
        <mxCell id="D4UEPr_kbto4Egsa2P8d-12" value="" style="line;strokeWidth=1;fillColor=none;align=left;verticalAlign=middle;spacingTop=-1;spacingLeft=3;spacingRight=3;rotatable=0;labelPosition=right;points=[];portConstraint=eastwest;strokeColor=inherit;" vertex="1" parent="D4UEPr_kbto4Egsa2P8d-10">
          <mxGeometry y="26" width="160" height="8" as="geometry" />
        </mxCell>
        <mxCell id="D4UEPr_kbto4Egsa2P8d-55" style="edgeStyle=orthogonalEdgeStyle;rounded=0;orthogonalLoop=1;jettySize=auto;html=1;entryX=0;entryY=0.5;entryDx=0;entryDy=0;dashed=1;endArrow=block;endFill=0;" edge="1" parent="1">
          <mxGeometry relative="1" as="geometry">
            <mxPoint x="92" y="663" as="sourcePoint" />
            <mxPoint x="340" y="899.5" as="targetPoint" />
            <Array as="points">
              <mxPoint x="58" y="663" />
              <mxPoint x="58" y="900" />
            </Array>
          </mxGeometry>
        </mxCell>
        <mxCell id="D4UEPr_kbto4Egsa2P8d-14" value="LinearRateStrategy" style="swimlane;fontStyle=1;align=center;verticalAlign=top;childLayout=stackLayout;horizontal=1;startSize=26;horizontalStack=0;resizeParent=1;resizeParentMax=0;resizeLast=0;collapsible=1;marginBottom=0;whiteSpace=wrap;html=1;" vertex="1" parent="1">
          <mxGeometry x="92" y="644" width="160" height="34" as="geometry" />
        </mxCell>
        <mxCell id="D4UEPr_kbto4Egsa2P8d-15" value="" style="line;strokeWidth=1;fillColor=none;align=left;verticalAlign=middle;spacingTop=-1;spacingLeft=3;spacingRight=3;rotatable=0;labelPosition=right;points=[];portConstraint=eastwest;strokeColor=inherit;" vertex="1" parent="D4UEPr_kbto4Egsa2P8d-14">
          <mxGeometry y="26" width="160" height="8" as="geometry" />
        </mxCell>
        <mxCell id="D4UEPr_kbto4Egsa2P8d-17" value="Linear2RateStrategy" style="swimlane;fontStyle=1;align=center;verticalAlign=top;childLayout=stackLayout;horizontal=1;startSize=26;horizontalStack=0;resizeParent=1;resizeParentMax=0;resizeLast=0;collapsible=1;marginBottom=0;whiteSpace=wrap;html=1;" vertex="1" parent="1">
          <mxGeometry x="104" y="723" width="160" height="34" as="geometry" />
        </mxCell>
        <mxCell id="D4UEPr_kbto4Egsa2P8d-18" value="" style="line;strokeWidth=1;fillColor=none;align=left;verticalAlign=middle;spacingTop=-1;spacingLeft=3;spacingRight=3;rotatable=0;labelPosition=right;points=[];portConstraint=eastwest;strokeColor=inherit;" vertex="1" parent="D4UEPr_kbto4Egsa2P8d-17">
          <mxGeometry y="26" width="160" height="8" as="geometry" />
        </mxCell>
        <mxCell id="D4UEPr_kbto4Egsa2P8d-20" value="AlternatingRateStrategy" style="swimlane;fontStyle=1;align=center;verticalAlign=top;childLayout=stackLayout;horizontal=1;startSize=26;horizontalStack=0;resizeParent=1;resizeParentMax=0;resizeLast=0;collapsible=1;marginBottom=0;whiteSpace=wrap;html=1;" vertex="1" parent="1">
          <mxGeometry x="579" y="746" width="160" height="34" as="geometry" />
        </mxCell>
        <mxCell id="D4UEPr_kbto4Egsa2P8d-21" value="" style="line;strokeWidth=1;fillColor=none;align=left;verticalAlign=middle;spacingTop=-1;spacingLeft=3;spacingRight=3;rotatable=0;labelPosition=right;points=[];portConstraint=eastwest;strokeColor=inherit;" vertex="1" parent="D4UEPr_kbto4Egsa2P8d-20">
          <mxGeometry y="26" width="160" height="8" as="geometry" />
        </mxCell>
        <mxCell id="D4UEPr_kbto4Egsa2P8d-53" style="edgeStyle=orthogonalEdgeStyle;rounded=0;orthogonalLoop=1;jettySize=auto;html=1;entryX=1;entryY=0.5;entryDx=0;entryDy=0;dashed=1;endArrow=block;endFill=0;" edge="1" parent="1" source="D4UEPr_kbto4Egsa2P8d-23" target="eepXHNa1NFzo9ST1N9Kp-28">
          <mxGeometry relative="1" as="geometry" />
        </mxCell>
        <mxCell id="D4UEPr_kbto4Egsa2P8d-23" value="Alternating2RateStrategy" style="swimlane;fontStyle=1;align=center;verticalAlign=top;childLayout=stackLayout;horizontal=1;startSize=26;horizontalStack=0;resizeParent=1;resizeParentMax=0;resizeLast=0;collapsible=1;marginBottom=0;whiteSpace=wrap;html=1;" vertex="1" parent="1">
          <mxGeometry x="786" y="754" width="160" height="34" as="geometry" />
        </mxCell>
        <mxCell id="D4UEPr_kbto4Egsa2P8d-24" value="" style="line;strokeWidth=1;fillColor=none;align=left;verticalAlign=middle;spacingTop=-1;spacingLeft=3;spacingRight=3;rotatable=0;labelPosition=right;points=[];portConstraint=eastwest;strokeColor=inherit;" vertex="1" parent="D4UEPr_kbto4Egsa2P8d-23">
          <mxGeometry y="26" width="160" height="8" as="geometry" />
        </mxCell>
        <mxCell id="D4UEPr_kbto4Egsa2P8d-36" style="edgeStyle=orthogonalEdgeStyle;rounded=0;orthogonalLoop=1;jettySize=auto;html=1;entryX=0.498;entryY=1.031;entryDx=0;entryDy=0;entryPerimeter=0;dashed=1;endArrow=block;endFill=0;" edge="1" parent="1" source="8iII8IrtHj4zT02Lu7h3-14" target="8iII8IrtHj4zT02Lu7h3-13">
          <mxGeometry relative="1" as="geometry" />
        </mxCell>
        <mxCell id="D4UEPr_kbto4Egsa2P8d-38" style="edgeStyle=orthogonalEdgeStyle;rounded=0;orthogonalLoop=1;jettySize=auto;html=1;entryX=0.502;entryY=1;entryDx=0;entryDy=0;entryPerimeter=0;dashed=1;endArrow=block;endFill=0;" edge="1" parent="1" source="8iII8IrtHj4zT02Lu7h3-5" target="8iII8IrtHj4zT02Lu7h3-4">
          <mxGeometry relative="1" as="geometry" />
        </mxCell>
        <mxCell id="D4UEPr_kbto4Egsa2P8d-39" style="edgeStyle=orthogonalEdgeStyle;rounded=0;orthogonalLoop=1;jettySize=auto;html=1;entryX=1.009;entryY=0.828;entryDx=0;entryDy=0;entryPerimeter=0;" edge="1" parent="1" source="8iII8IrtHj4zT02Lu7h3-5" target="8iII8IrtHj4zT02Lu7h3-15">
          <mxGeometry relative="1" as="geometry" />
        </mxCell>
        <mxCell id="D4UEPr_kbto4Egsa2P8d-43" style="edgeStyle=orthogonalEdgeStyle;rounded=0;orthogonalLoop=1;jettySize=auto;html=1;exitX=0.622;exitY=0.993;exitDx=0;exitDy=0;exitPerimeter=0;dashed=1;endArrow=open;endFill=0;" edge="1" parent="1" source="8iII8IrtHj4zT02Lu7h3-8" target="D4UEPr_kbto4Egsa2P8d-20">
          <mxGeometry relative="1" as="geometry">
            <Array as="points">
              <mxPoint x="577" y="591" />
              <mxPoint x="577" y="663" />
              <mxPoint x="606" y="663" />
            </Array>
          </mxGeometry>
        </mxCell>
        <mxCell id="D4UEPr_kbto4Egsa2P8d-44" style="edgeStyle=orthogonalEdgeStyle;rounded=0;orthogonalLoop=1;jettySize=auto;html=1;exitX=0.922;exitY=0.993;exitDx=0;exitDy=0;exitPerimeter=0;dashed=1;endArrow=open;endFill=0;" edge="1" parent="1" source="8iII8IrtHj4zT02Lu7h3-8" target="D4UEPr_kbto4Egsa2P8d-23">
          <mxGeometry relative="1" as="geometry">
            <Array as="points">
              <mxPoint x="629" y="591" />
              <mxPoint x="629" y="664" />
              <mxPoint x="865" y="664" />
            </Array>
          </mxGeometry>
        </mxCell>
        <mxCell id="D4UEPr_kbto4Egsa2P8d-45" style="edgeStyle=orthogonalEdgeStyle;rounded=0;orthogonalLoop=1;jettySize=auto;html=1;exitX=0.415;exitY=0.993;exitDx=0;exitDy=0;exitPerimeter=0;dashed=1;endArrow=open;endFill=0;" edge="1" parent="1" source="8iII8IrtHj4zT02Lu7h3-8" target="D4UEPr_kbto4Egsa2P8d-10">
          <mxGeometry relative="1" as="geometry">
            <Array as="points">
              <mxPoint x="508" y="591" />
              <mxPoint x="508" y="662" />
              <mxPoint x="400" y="662" />
            </Array>
          </mxGeometry>
        </mxCell>
        <mxCell id="D4UEPr_kbto4Egsa2P8d-46" style="edgeStyle=orthogonalEdgeStyle;rounded=0;orthogonalLoop=1;jettySize=auto;html=1;dashed=1;endArrow=open;endFill=0;" edge="1" parent="1" source="8iII8IrtHj4zT02Lu7h3-8" target="D4UEPr_kbto4Egsa2P8d-14">
          <mxGeometry relative="1" as="geometry" />
        </mxCell>
        <mxCell id="D4UEPr_kbto4Egsa2P8d-48" style="edgeStyle=orthogonalEdgeStyle;rounded=0;orthogonalLoop=1;jettySize=auto;html=1;dashed=1;endArrow=open;endFill=0;" edge="1" parent="1" source="8iII8IrtHj4zT02Lu7h3-8" target="D4UEPr_kbto4Egsa2P8d-17">
          <mxGeometry relative="1" as="geometry">
            <Array as="points">
              <mxPoint x="469" y="550" />
              <mxPoint x="297" y="550" />
              <mxPoint x="297" y="740" />
            </Array>
          </mxGeometry>
        </mxCell>
        <mxCell id="D4UEPr_kbto4Egsa2P8d-57" style="edgeStyle=orthogonalEdgeStyle;rounded=0;orthogonalLoop=1;jettySize=auto;html=1;dashed=1;endArrow=block;endFill=0;" edge="1" parent="1">
          <mxGeometry relative="1" as="geometry">
            <mxPoint x="655" y="780" as="sourcePoint" />
            <mxPoint x="557" y="878" as="targetPoint" />
            <Array as="points">
              <mxPoint x="655" y="878" />
            </Array>
          </mxGeometry>
        </mxCell>
        <mxCell id="D4UEPr_kbto4Egsa2P8d-59" style="edgeStyle=orthogonalEdgeStyle;rounded=0;orthogonalLoop=1;jettySize=auto;html=1;entryX=0.207;entryY=-0.012;entryDx=0;entryDy=0;entryPerimeter=0;dashed=1;endArrow=block;endFill=0;" edge="1" parent="1" source="D4UEPr_kbto4Egsa2P8d-10" target="eepXHNa1NFzo9ST1N9Kp-25">
          <mxGeometry relative="1" as="geometry" />
        </mxCell>
        <mxCell id="D4UEPr_kbto4Egsa2P8d-60" style="edgeStyle=orthogonalEdgeStyle;rounded=0;orthogonalLoop=1;jettySize=auto;html=1;" edge="1" parent="1" source="eepXHNa1NFzo9ST1N9Kp-22" target="8iII8IrtHj4zT02Lu7h3-8">
          <mxGeometry relative="1" as="geometry" />
        </mxCell>
        <mxCell id="D4UEPr_kbto4Egsa2P8d-61" value="Use" style="text;html=1;align=center;verticalAlign=middle;resizable=0;points=[];autosize=1;strokeColor=none;fillColor=none;" vertex="1" parent="1">
          <mxGeometry x="269" y="470" width="39" height="26" as="geometry" />
        </mxCell>
        <mxCell id="D4UEPr_kbto4Egsa2P8d-62" value="Use" style="text;html=1;align=center;verticalAlign=middle;resizable=0;points=[];autosize=1;strokeColor=none;fillColor=none;" vertex="1" parent="1">
          <mxGeometry x="292" y="603" width="39" height="26" as="geometry" />
        </mxCell>
        <mxCell id="D4UEPr_kbto4Egsa2P8d-63" value="Use" style="text;html=1;align=center;verticalAlign=middle;resizable=0;points=[];autosize=1;strokeColor=none;fillColor=none;" vertex="1" parent="1">
          <mxGeometry x="431" y="639" width="39" height="26" as="geometry" />
        </mxCell>
        <mxCell id="D4UEPr_kbto4Egsa2P8d-64" value="Use" style="text;html=1;align=center;verticalAlign=middle;resizable=0;points=[];autosize=1;strokeColor=none;fillColor=none;" vertex="1" parent="1">
          <mxGeometry x="602" y="697" width="39" height="26" as="geometry" />
        </mxCell>
        <mxCell id="D4UEPr_kbto4Egsa2P8d-65" value="Use" style="text;html=1;align=center;verticalAlign=middle;resizable=0;points=[];autosize=1;strokeColor=none;fillColor=none;" vertex="1" parent="1">
          <mxGeometry x="724" y="642" width="39" height="26" as="geometry" />
        </mxCell>
        <mxCell id="D4UEPr_kbto4Egsa2P8d-67" style="edgeStyle=orthogonalEdgeStyle;rounded=0;orthogonalLoop=1;jettySize=auto;html=1;entryX=0.008;entryY=0.093;entryDx=0;entryDy=0;entryPerimeter=0;" edge="1" parent="1" source="D4UEPr_kbto4Egsa2P8d-17" target="eepXHNa1NFzo9ST1N9Kp-28">
          <mxGeometry relative="1" as="geometry" />
        </mxCell>
      </root>
    </mxGraphModel>
  </diagram>
</mxfile>
